<?xml version="1.0" standalone="no"?>
<!DOCTYPE svg PUBLIC "-//W3C//DTD SVG 20010904//EN"
 "http://www.w3.org/TR/2001/REC-SVG-20010904/DTD/svg10.dtd">
<svg version="1.0" xmlns="http://www.w3.org/2000/svg"
 width="1600.000000pt" height="1600.000000pt" viewBox="0 0 1600.000000 1600.000000"
 preserveAspectRatio="xMidYMid meet">
<metadata>
Created by potrace 1.11, written by Peter Selinger 2001-2013
</metadata>
<g transform="translate(0.000000,1600.000000) scale(0.100000,-0.100000)"
fill="#000000" stroke="none">
<path d="M5404 15263 c5 -9 0 -13 -13 -14 -29 -2 -34 -3 -48 -12 -8 -5 -13 -4
-13 2 0 6 -5 11 -11 11 -5 0 -7 -4 -4 -10 3 -5 -2 -10 -12 -10 -11 0 -25 -6
-32 -12 -11 -11 -12 -10 -6 0 4 7 -20 0 -53 -17 -33 -16 -63 -27 -67 -23 -5 4
-5 -2 -1 -12 5 -16 4 -17 -9 -6 -12 10 -15 10 -15 0 0 -7 -7 -10 -15 -6 -8 3
-14 0 -12 -7 1 -7 -5 -12 -13 -12 -8 0 -23 -8 -33 -18 -10 -10 -23 -15 -29
-11 -7 5 -9 2 -5 -9 4 -11 -1 -18 -16 -23 -12 -5 -26 -7 -30 -6 -5 1 -6 -2 -3
-7 6 -9 -22 -26 -38 -22 -5 1 -4 -5 3 -13 11 -13 10 -15 -8 -11 -13 2 -18 -1
-15 -9 3 -8 -5 -16 -20 -20 -17 -4 -23 -11 -20 -21 4 -8 1 -15 -4 -15 -15 0
-61 -47 -54 -54 3 -3 -2 -6 -11 -6 -9 0 -19 -5 -23 -12 -4 -7 -3 -8 4 -4 8 5
10 2 6 -8 -3 -9 -11 -14 -17 -13 -7 1 -11 -4 -9 -10 1 -7 -4 -13 -12 -13 -9 0
-12 -7 -9 -22 3 -14 1 -18 -4 -12 -6 9 -11 8 -21 -2 -7 -8 -10 -14 -6 -14 4 0
0 -8 -9 -18 -10 -10 -14 -22 -10 -25 3 -4 -1 -7 -10 -7 -11 0 -14 -5 -10 -17
4 -11 3 -14 -5 -9 -7 4 -12 2 -12 -5 0 -6 -8 -18 -17 -26 -11 -8 -12 -11 -3
-7 12 7 13 5 3 -8 -7 -8 -9 -19 -5 -23 4 -5 1 -5 -5 -1 -8 4 -13 1 -13 -8 0
-8 -7 -22 -16 -31 -9 -8 -13 -23 -10 -31 5 -12 2 -15 -9 -10 -9 3 -13 2 -10
-3 3 -5 1 -12 -4 -16 -6 -3 -7 -13 -4 -22 4 -10 2 -14 -4 -10 -6 4 -13 0 -16
-7 -3 -8 -1 -17 6 -20 7 -2 4 -5 -5 -5 -10 -1 -17 -4 -17 -8 4 -22 -2 -33 -13
-27 -8 5 -7 0 2 -11 8 -10 10 -16 3 -12 -15 9 -29 -35 -17 -54 4 -7 3 -9 -4
-5 -10 6 -28 -30 -24 -46 1 -5 -3 -8 -9 -8 -5 0 -8 -4 -4 -9 3 -5 -2 -17 -11
-25 -11 -12 -12 -16 -2 -16 9 -1 8 -5 -4 -14 -13 -9 -14 -16 -6 -24 8 -8 7
-13 -6 -18 -14 -5 -14 -9 -4 -22 10 -12 10 -14 1 -8 -8 4 -13 2 -13 -8 0 -8
-6 -17 -12 -19 -10 -4 -10 -6 0 -6 6 -1 12 -6 12 -12 0 -5 -4 -7 -10 -4 -5 3
-11 -4 -12 -17 -2 -37 -3 -42 -11 -55 -5 -7 -6 -17 -3 -22 3 -5 -1 -12 -10
-15 -12 -5 -14 -9 -5 -20 8 -10 8 -16 -2 -24 -7 -6 -12 -28 -12 -49 0 -22 -7
-46 -17 -57 -13 -14 -15 -23 -7 -32 5 -7 6 -15 1 -18 -4 -2 -7 -19 -6 -35 1
-17 -2 -31 -7 -31 -4 0 -6 -7 -3 -15 4 -8 11 -12 17 -8 6 3 7 1 3 -6 -4 -6
-11 -9 -16 -6 -4 3 -11 -2 -14 -11 -4 -10 -2 -13 7 -8 8 5 7 2 -2 -9 -10 -13
-10 -17 -1 -17 10 0 10 -3 0 -15 -7 -8 -9 -15 -4 -15 4 0 3 -5 -4 -12 -7 -7
-12 -17 -12 -22 0 -6 4 -4 10 4 6 10 8 4 7 -22 -1 -23 -6 -33 -12 -28 -12 10
-14 -68 -2 -87 4 -6 3 -14 -1 -17 -11 -6 -9 -36 3 -55 5 -9 4 -12 -3 -7 -6 4
-11 -1 -11 -11 0 -10 -2 -32 -3 -50 -3 -25 -1 -30 8 -22 9 8 11 5 7 -10 -3
-12 -10 -21 -17 -21 -6 0 -4 -5 4 -10 10 -6 11 -10 3 -10 -7 0 -13 -5 -13 -11
0 -5 5 -7 12 -3 7 4 8 3 4 -5 -4 -6 -2 -19 6 -28 8 -11 9 -14 1 -10 -15 9 -13
-64 2 -75 7 -5 6 -8 -1 -8 -12 0 -11 -41 2 -61 4 -7 3 -9 -4 -5 -13 8 -9 -21
5 -35 8 -8 8 -20 3 -35 -6 -14 -6 -26 0 -29 15 -9 12 -27 -2 -19 -7 4 -5 -1 4
-12 14 -16 15 -23 6 -32 -9 -9 -9 -12 1 -12 9 0 11 -8 8 -21 -4 -16 -2 -19 10
-15 13 5 14 4 4 -8 -9 -10 -9 -16 -1 -21 8 -5 8 -11 -1 -21 -7 -8 -7 -14 -1
-14 5 0 13 -7 16 -16 3 -8 2 -12 -4 -9 -6 3 -10 1 -10 -4 0 -6 4 -11 10 -11 5
0 6 -7 3 -17 -4 -11 -3 -14 6 -9 14 9 11 -16 -4 -26 -6 -5 -5 -8 3 -8 8 0 12
-12 10 -34 -1 -19 3 -40 9 -48 5 -7 9 -23 8 -35 -1 -13 3 -23 9 -23 6 0 4 -5
-4 -10 -13 -9 -13 -10 0 -10 13 0 13 -1 0 -10 -12 -8 -12 -10 5 -10 17 0 17
-2 5 -10 -11 -7 -11 -10 -2 -10 9 0 12 -10 8 -30 -3 -19 1 -36 11 -45 11 -12
11 -15 1 -15 -10 0 -10 -2 1 -9 8 -5 12 -19 9 -35 -3 -16 -1 -26 7 -26 7 0 11
-12 11 -27 -1 -16 5 -37 14 -47 13 -17 13 -18 0 -11 -12 7 -13 6 -3 -7 7 -8
14 -27 15 -42 1 -14 6 -26 10 -26 4 0 8 -10 8 -23 0 -13 6 -29 13 -36 10 -11
9 -12 -2 -6 -11 6 -11 3 2 -14 8 -13 13 -30 10 -37 -3 -8 0 -14 7 -14 6 0 9
-4 6 -9 -8 -12 4 -42 13 -36 4 2 8 -2 8 -10 0 -8 -5 -11 -11 -8 -6 3 0 -6 13
-20 14 -15 19 -27 13 -27 -7 0 -12 5 -12 12 0 6 -2 9 -5 6 -9 -8 21 -58 30
-50 5 4 5 1 0 -7 -4 -8 -2 -17 6 -22 12 -7 12 -9 -1 -9 -10 0 -7 -5 8 -16 12
-8 22 -20 22 -26 0 -7 -7 -3 -15 8 -12 15 -12 11 2 -18 9 -21 21 -38 27 -38 6
0 4 -5 -4 -10 -10 -6 -11 -10 -2 -10 6 0 12 -9 12 -21 0 -11 4 -17 10 -14 6 3
7 -1 4 -10 -7 -17 25 -95 39 -95 4 0 7 -5 7 -11 0 -5 -5 -7 -11 -4 -6 4 -5 -2
2 -13 7 -12 17 -18 23 -15 5 4 7 -1 3 -12 -5 -11 -1 -23 10 -32 10 -8 12 -12
6 -8 -9 4 -11 1 -7 -9 3 -9 14 -16 23 -16 10 0 12 -3 5 -8 -16 -10 -13 -41 3
-35 9 3 11 0 7 -10 -3 -8 0 -18 7 -23 8 -5 10 -3 4 6 -5 8 -4 11 2 7 5 -3 9
-16 8 -29 -1 -13 7 -29 17 -36 16 -12 17 -16 6 -30 -10 -12 -10 -14 0 -8 6 4
12 2 12 -3 0 -18 3 -26 17 -39 7 -8 11 -18 8 -23 -4 -5 -2 -9 4 -9 10 0 27
-38 23 -52 -1 -5 6 -8 16 -8 14 0 15 -2 2 -10 -12 -7 -12 -10 -1 -10 7 0 11
-6 8 -15 -4 -8 -1 -17 5 -21 7 -4 8 -3 4 4 -4 7 -2 12 5 12 6 0 9 -8 6 -20 -3
-13 0 -20 10 -20 10 0 12 -6 8 -20 -4 -13 -2 -20 5 -18 7 2 14 -6 16 -17 1
-11 8 -21 13 -23 6 -2 11 -13 11 -23 0 -11 4 -17 10 -14 6 3 10 -3 10 -14 0
-10 4 -21 10 -23 5 -2 11 -15 12 -30 1 -15 6 -24 10 -22 5 3 5 10 2 16 -4 7
-2 8 5 4 6 -4 8 -12 5 -18 -4 -6 -1 -14 5 -18 7 -4 13 -16 14 -28 0 -11 4 -19
7 -17 3 1 11 -3 18 -11 10 -11 10 -14 0 -14 -9 0 -9 -3 2 -9 8 -6 19 -7 25 -3
5 3 4 -2 -4 -12 -13 -15 -12 -18 7 -22 14 -4 19 -12 17 -25 -3 -14 2 -19 18
-19 18 0 19 -2 7 -10 -12 -7 -12 -10 -1 -10 8 0 11 -6 7 -16 -3 -8 -2 -13 2
-11 4 3 16 -5 27 -16 l20 -20 -20 6 c-19 7 -19 6 -2 -7 9 -7 17 -16 17 -19 0
-4 17 -24 37 -46 20 -22 38 -48 39 -58 2 -10 10 -23 18 -29 9 -6 13 -14 9 -17
-3 -4 -1 -7 6 -7 8 0 11 -6 7 -16 -3 -9 -2 -12 5 -9 6 4 13 -2 16 -14 3 -12
10 -21 15 -21 5 0 14 -13 19 -30 6 -16 18 -30 26 -30 8 0 11 -4 8 -10 -3 -5 2
-10 11 -10 10 0 15 -3 11 -6 -3 -4 1 -13 9 -21 8 -8 12 -19 9 -24 -4 -5 1 -9
9 -9 9 0 16 -5 16 -11 0 -5 6 -7 13 -3 8 5 8 2 -2 -9 -12 -15 -11 -17 3 -17
10 0 15 -4 12 -8 -3 -5 4 -15 15 -22 10 -8 19 -20 19 -28 0 -7 7 -15 16 -19 8
-3 13 -12 10 -20 -4 -8 -1 -11 5 -8 6 4 13 -2 16 -14 3 -12 12 -21 20 -21 8 0
11 -4 8 -10 -3 -5 -1 -10 5 -10 6 0 8 -4 5 -10 -3 -5 -1 -10 5 -10 6 0 8 -5 5
-10 -4 -6 -3 -10 2 -9 27 5 35 -1 23 -16 -11 -13 -10 -14 3 -9 12 4 15 0 14
-15 -1 -12 -7 -21 -14 -21 -8 0 -16 -7 -20 -16 -3 -9 -13 -14 -24 -11 -13 3
-16 0 -12 -11 5 -11 2 -14 -10 -9 -15 6 -22 -3 -18 -25 0 -4 -6 -5 -14 -2 -8
4 -17 -1 -21 -9 -3 -9 -12 -13 -19 -11 -7 3 -19 -3 -26 -13 -8 -10 -20 -19
-28 -21 -8 -2 -22 -12 -32 -23 -17 -20 -35 -26 -24 -8 4 6 -2 5 -13 -2 -12 -7
-18 -18 -14 -24 3 -5 -2 -4 -12 4 -15 12 -17 12 -14 0 2 -10 -6 -14 -24 -13
-15 1 -25 -2 -23 -6 3 -5 -2 -11 -11 -14 -10 -4 -13 -2 -8 7 4 6 -2 4 -13 -6
-11 -9 -23 -14 -26 -11 -4 4 -13 1 -21 -5 -8 -7 -21 -9 -27 -5 -8 4 -9 3 -5
-4 4 -7 1 -12 -8 -12 -8 0 -16 3 -19 8 -2 4 -2 1 -1 -5 2 -8 -7 -13 -21 -13
-14 0 -25 -6 -25 -12 0 -9 -4 -8 -10 2 -9 13 -14 8 -11 -12 0 -4 -8 -5 -19 -3
-11 2 -20 -2 -20 -8 0 -7 -4 -6 -10 3 -7 11 -10 11 -10 2 0 -7 -4 -10 -10 -7
-5 3 -10 2 -10 -4 0 -5 -9 -8 -20 -6 -11 2 -22 0 -25 -6 -4 -5 -15 -9 -26 -9
-14 0 -18 -4 -13 -12 6 -10 4 -10 -7 -2 -16 13 -52 10 -57 -6 -2 -5 -8 -8 -13
-4 -5 3 -9 0 -9 -7 0 -8 -4 -8 -15 1 -12 10 -16 9 -21 -4 -3 -9 -10 -16 -16
-16 -5 0 -6 6 -3 13 4 6 0 4 -8 -6 -9 -11 -16 -14 -19 -7 -2 6 -11 8 -21 5 -9
-4 -14 -12 -10 -19 4 -6 -1 -5 -10 3 -11 9 -17 10 -17 2 0 -6 -5 -11 -11 -11
-5 0 -7 5 -3 12 4 6 -3 4 -16 -5 -18 -13 -28 -14 -44 -5 -20 11 -20 10 -6 -7
8 -10 10 -16 3 -12 -6 4 -14 3 -18 -3 -4 -7 -12 -7 -26 0 -18 10 -24 6 -19
-15 1 -5 -4 -4 -11 3 -18 17 -29 15 -22 -5 5 -14 3 -15 -7 -6 -9 8 -20 8 -45
-3 -18 -7 -35 -10 -39 -7 -3 4 -6 0 -6 -8 0 -11 -2 -11 -10 1 -8 12 -10 12
-10 1 0 -11 -3 -11 -17 0 -11 10 -14 10 -9 2 4 -7 2 -14 -3 -14 -15 -2 -30 -6
-33 -9 -2 -1 -16 -4 -33 -6 -16 -2 -31 -8 -33 -14 -2 -5 -8 -10 -13 -10 -6 0
-8 4 -5 9 4 5 -2 8 -11 7 -9 -2 -19 -8 -21 -14 -2 -6 -10 -8 -18 -5 -8 3 -14
0 -14 -7 0 -6 -4 -9 -10 -5 -5 3 -25 -1 -45 -9 -19 -8 -43 -12 -52 -9 -12 5
-14 3 -8 -7 6 -10 4 -12 -8 -7 -10 3 -17 2 -17 -3 0 -6 -3 -9 -7 -9 -20 3 -44
-2 -40 -8 3 -5 -11 -9 -30 -9 -19 -1 -39 -7 -43 -14 -4 -7 -14 -10 -21 -8 -8
3 -20 -2 -28 -9 -7 -8 -24 -13 -36 -11 -12 1 -29 -3 -37 -9 -12 -11 -41 -19
-71 -22 -5 -1 -5 -6 -1 -13 4 -7 3 -8 -5 -4 -6 4 -19 2 -28 -6 -9 -7 -14 -8
-11 -3 4 6 -2 11 -12 11 -10 0 -16 -6 -13 -13 3 -8 -2 -11 -16 -8 -12 2 -21
-1 -21 -6 0 -6 -4 -7 -10 -4 -5 3 -10 2 -10 -4 0 -5 -11 -8 -25 -7 -13 2 -22
-1 -19 -5 3 -5 -2 -9 -11 -9 -9 0 -13 -5 -9 -11 4 -7 -1 -7 -16 1 -20 11 -22
10 -17 -3 4 -11 1 -15 -13 -12 -11 2 -22 -1 -26 -7 -4 -6 -10 -5 -15 3 -7 11
-9 10 -9 -4 0 -10 -4 -16 -9 -12 -5 3 -12 1 -16 -5 -3 -5 -15 -10 -26 -10 -10
0 -19 -5 -19 -11 0 -8 -5 -7 -15 1 -13 11 -14 10 -9 -5 5 -11 3 -16 -3 -12 -5
3 -24 -3 -42 -14 -18 -11 -36 -17 -41 -14 -4 3 -11 -2 -14 -11 -3 -9 -12 -14
-20 -11 -8 3 -22 -3 -31 -13 -10 -11 -22 -17 -26 -14 -5 3 -9 1 -9 -4 0 -6
-13 -15 -30 -21 -16 -5 -30 -15 -30 -21 0 -6 -4 -8 -10 -5 -5 3 -10 2 -10 -4
0 -6 -20 -20 -45 -31 -25 -11 -45 -25 -45 -30 0 -6 -3 -9 -8 -7 -4 1 -21 -10
-37 -26 -17 -15 -36 -25 -43 -22 -8 3 -10 0 -6 -7 5 -7 2 -9 -9 -5 -11 4 -14
2 -10 -9 3 -8 -1 -14 -11 -14 -9 0 -16 -8 -17 -17 0 -10 -3 -13 -6 -6 -3 10
-7 10 -18 0 -7 -7 -10 -16 -7 -21 3 -5 0 -6 -5 -3 -6 4 -21 -2 -33 -13 -12
-11 -28 -17 -34 -13 -6 3 -8 3 -4 -2 7 -7 -14 -35 -27 -35 -3 0 -18 -11 -32
-24 -15 -14 -31 -22 -36 -19 -6 3 -7 1 -3 -5 4 -7 2 -12 -4 -12 -6 0 -8 -5 -4
-12 4 -6 3 -8 -3 -5 -13 8 -53 -21 -53 -39 0 -8 -5 -12 -11 -9 -6 4 -13 -3
-16 -15 -4 -16 -8 -18 -14 -8 -7 10 -9 9 -9 -4 0 -10 -4 -18 -8 -18 -5 0 -15
-11 -22 -25 -7 -14 -15 -23 -18 -20 -3 2 1 13 9 22 13 16 12 17 -3 4 -10 -7
-18 -19 -18 -27 0 -7 -5 -16 -12 -20 -7 -5 -8 -3 -3 6 5 8 4 11 -3 6 -6 -4 -8
-14 -5 -23 4 -11 3 -14 -5 -9 -7 4 -12 1 -12 -8 0 -8 -9 -17 -20 -21 -11 -3
-19 -9 -19 -13 3 -18 -2 -35 -7 -29 -8 8 -34 -18 -34 -33 0 -6 -5 -8 -12 -4
-8 5 -8 2 1 -10 8 -9 10 -16 5 -15 -27 5 -36 -1 -24 -16 11 -13 10 -14 -6 -9
-10 4 -16 4 -12 -1 4 -4 0 -14 -10 -22 -11 -10 -12 -12 -2 -8 13 6 13 5 0 -7
-8 -7 -21 -25 -29 -40 -8 -15 -18 -25 -22 -22 -5 3 -6 -2 -3 -10 4 -9 0 -18
-9 -22 -9 -3 -14 -11 -11 -19 3 -7 -2 -15 -11 -19 -9 -3 -13 -10 -10 -16 3 -5
0 -10 -7 -10 -9 0 -9 -3 2 -10 13 -8 12 -10 -4 -10 -15 0 -16 -3 -6 -15 11
-13 10 -14 -5 -9 -13 5 -16 4 -11 -4 4 -7 2 -12 -4 -12 -6 0 -9 -4 -6 -9 8
-12 -19 -62 -29 -53 -4 4 -2 -3 4 -15 9 -19 9 -22 -3 -17 -11 4 -14 -1 -12
-20 2 -14 -1 -23 -5 -20 -5 3 -9 -4 -9 -14 0 -11 -7 -25 -15 -32 -8 -7 -15
-18 -15 -24 0 -6 4 -4 10 4 5 8 12 12 15 8 3 -3 -1 -13 -10 -22 -9 -9 -13 -16
-9 -16 3 0 1 -6 -5 -14 -6 -8 -11 -18 -10 -22 3 -21 -2 -35 -11 -29 -5 3 -10
1 -10 -4 0 -6 5 -11 11 -11 8 0 8 -4 0 -13 -8 -10 -7 -17 2 -26 9 -10 9 -12
-3 -9 -15 3 -16 -3 -5 -37 5 -14 4 -16 -3 -6 -13 19 -19 4 -17 -51 0 -32 -3
-44 -10 -38 -7 6 -11 2 -11 -10 0 -10 4 -16 8 -14 4 3 8 1 8 -5 0 -5 -5 -13
-10 -16 -6 -3 -10 -11 -10 -16 0 -6 6 -7 13 -3 9 6 9 4 1 -7 -6 -8 -10 -39 -9
-70 1 -47 -1 -56 -14 -52 -11 3 -10 0 3 -11 20 -16 20 -16 0 -16 -19 -1 -19
-1 0 -15 20 -15 20 -15 0 -15 -16 0 -17 -2 -4 -10 11 -7 11 -10 2 -10 -7 0
-10 -5 -7 -10 4 -6 12 -7 18 -3 7 4 5 -1 -3 -12 -17 -21 -23 -88 -7 -78 6 3 7
1 3 -6 -4 -6 -2 -20 6 -29 11 -15 11 -16 -3 -5 -14 11 -16 8 -15 -26 0 -22 4
-37 8 -34 13 7 9 -12 -4 -26 -8 -9 -8 -11 -2 -8 7 4 14 0 18 -8 3 -10 -1 -15
-12 -16 -14 0 -14 -2 -2 -7 8 -4 15 -16 14 -27 0 -11 5 -26 10 -34 8 -11 8
-13 -1 -7 -17 9 -17 -6 -1 -23 8 -9 9 -12 1 -7 -7 4 -9 -1 -6 -14 3 -11 9 -18
13 -15 4 2 6 -8 5 -23 -1 -15 2 -33 8 -39 6 -9 5 -13 -4 -13 -10 -1 -8 -4 4
-11 9 -5 17 -15 17 -20 0 -6 -6 -7 -13 -3 -8 5 -8 2 2 -9 7 -9 10 -17 5 -17
-5 -1 2 -10 16 -22 17 -14 19 -19 7 -15 -13 5 -16 3 -10 -6 4 -6 8 -16 9 -22
3 -22 17 -55 23 -55 4 0 7 -10 8 -22 1 -11 8 -25 15 -29 10 -7 10 -9 1 -9 -7
0 -13 -5 -13 -11 0 -5 3 -8 7 -6 5 3 14 -1 20 -9 8 -8 9 -15 3 -19 -6 -3 1
-22 15 -44 13 -22 21 -42 17 -47 -4 -4 -1 -4 5 0 8 4 13 1 13 -9 0 -9 4 -14 9
-11 4 3 7 -6 6 -19 -2 -13 1 -23 7 -22 6 1 12 -6 13 -17 2 -10 13 -28 24 -40
24 -25 36 -132 17 -140 -7 -3 -6 -5 1 -5 7 -1 10 -8 7 -16 -4 -8 -10 -13 -14
-10 -13 8 -5 -21 10 -41 9 -11 10 -15 3 -10 -8 4 -13 2 -13 -4 0 -6 -5 -8 -12
-4 -10 6 -10 4 -2 -7 7 -8 11 -27 9 -44 -1 -16 2 -38 8 -49 6 -13 6 -16 -2
-12 -7 5 -9 -8 -6 -39 2 -25 -1 -45 -6 -45 -6 0 -7 -5 -3 -11 11 -19 11 -89 0
-82 -6 4 -5 -1 3 -10 10 -13 10 -17 1 -17 -9 0 -9 -4 1 -17 12 -15 12 -16 -6
-10 -20 7 -20 7 -1 -8 14 -11 16 -15 5 -15 -8 0 -10 -3 -4 -8 15 -11 12 -46
-5 -54 -13 -6 -13 -7 0 -7 12 -1 15 -13 14 -56 -1 -30 3 -52 7 -49 5 3 5 -5 0
-18 -6 -17 -4 -26 8 -36 9 -7 11 -11 5 -8 -7 3 -15 -1 -18 -10 -3 -8 -2 -13 3
-10 11 7 18 -19 17 -56 -1 -16 2 -28 6 -28 4 0 3 -12 -3 -26 -8 -22 -7 -25 4
-16 11 9 13 3 12 -33 0 -29 4 -46 13 -50 7 -3 10 -10 7 -15 -4 -6 -1 -17 5
-25 10 -12 10 -15 -1 -15 -12 0 -12 -2 0 -9 8 -5 10 -14 5 -22 -6 -10 -3 -10
11 1 17 14 18 14 7 -7 -9 -16 -9 -23 1 -26 9 -4 8 -8 -3 -16 -12 -9 -10 -11
10 -11 17 0 21 -3 12 -9 -11 -7 -11 -11 2 -23 8 -9 12 -18 9 -22 -4 -3 -1 -6
6 -6 7 0 10 -4 7 -9 -9 -14 5 -42 17 -34 5 3 7 2 4 -4 -3 -5 2 -26 13 -45 10
-20 16 -39 13 -42 -4 -3 1 -6 10 -6 11 0 14 -5 10 -17 -4 -11 -3 -14 5 -9 7 4
12 1 12 -9 0 -20 25 -47 34 -37 4 3 4 -1 0 -11 -3 -9 -1 -17 4 -17 6 0 14 -9
17 -20 4 -11 11 -18 16 -15 5 3 6 -1 3 -9 -4 -9 1 -18 10 -22 9 -3 16 -10 16
-15 0 -6 10 -20 21 -32 12 -12 18 -15 14 -7 -8 13 -6 13 7 2 9 -8 14 -20 11
-28 -3 -8 1 -14 10 -14 9 0 22 -9 30 -20 8 -11 18 -17 23 -12 4 4 2 -1 -6 -11
-7 -10 -9 -17 -4 -16 21 4 35 -2 29 -11 -3 -5 0 -10 8 -10 8 0 21 -8 28 -17
10 -11 10 -14 2 -9 -7 4 -13 2 -13 -3 0 -6 6 -11 13 -11 6 0 4 -5 -6 -11 -11
-7 -15 -15 -10 -22 11 -14 10 -57 0 -74 -5 -8 -3 -13 4 -13 7 0 5 -8 -7 -21
-10 -11 -14 -20 -9 -19 24 5 26 -2 10 -26 -9 -15 -13 -24 -7 -20 5 3 12 -1 16
-9 3 -8 1 -15 -4 -15 -5 0 -7 -6 -5 -12 3 -7 6 -60 8 -118 3 -58 7 -112 11
-120 3 -8 7 -24 9 -35 1 -11 6 -25 10 -32 4 -6 3 -14 -2 -18 -6 -3 -8 -12 -5
-20 4 -8 10 -12 15 -9 5 3 9 0 9 -5 0 -6 -6 -11 -12 -11 -9 0 -8 -4 2 -10 8
-5 11 -10 6 -10 -4 0 -2 -10 6 -23 8 -12 14 -30 12 -39 -1 -10 2 -18 7 -18 6
0 7 -5 4 -10 -4 -6 -1 -18 6 -26 6 -8 9 -17 6 -21 -9 -8 22 -65 32 -59 4 3 6
-6 3 -19 -2 -15 0 -25 7 -25 6 0 11 -8 11 -18 0 -10 8 -27 18 -38 11 -11 18
-28 16 -37 -2 -15 0 -16 14 -5 13 11 14 11 8 -1 -5 -8 -3 -16 5 -21 7 -5 14
-14 15 -22 4 -26 31 -68 39 -60 5 4 5 -1 2 -10 -4 -10 -2 -18 4 -18 11 0 46
-31 42 -37 -7 -8 -2 -24 6 -19 5 3 11 -4 14 -15 3 -12 10 -18 16 -15 6 4 13
-5 17 -19 3 -13 9 -23 13 -20 4 2 13 -5 21 -15 8 -10 17 -17 22 -14 4 3 5 -2
2 -10 -4 -11 0 -16 11 -16 9 0 13 -5 10 -10 -3 -6 -1 -10 5 -10 14 0 40 -25
40 -39 0 -6 3 -10 8 -10 20 3 32 -3 32 -17 0 -10 5 -14 16 -10 8 3 12 2 9 -4
-3 -6 -1 -10 5 -10 6 0 22 -11 35 -25 14 -13 25 -22 25 -19 0 3 7 -1 15 -8 29
-26 40 -34 58 -41 10 -4 15 -11 12 -17 -3 -6 1 -7 9 -4 9 3 16 1 16 -6 0 -6 5
-8 10 -5 6 3 10 1 10 -6 0 -7 3 -9 7 -6 7 8 63 -48 63 -63 0 -6 -6 -8 -12 -4
-9 5 -9 2 1 -9 7 -9 11 -17 7 -17 -3 0 -1 -11 4 -24 6 -16 5 -28 -3 -36 -7 -7
-7 -10 -2 -8 6 3 16 0 23 -8 7 -8 9 -14 3 -14 -12 0 -4 -35 16 -72 2 -4 -4 -5
-14 -2 -12 4 -11 1 4 -8 26 -16 29 -28 11 -39 -10 -7 -9 -9 5 -9 14 0 17 -5
12 -20 -4 -12 -2 -20 5 -20 7 0 10 -8 7 -20 -3 -10 1 -24 9 -31 8 -6 11 -15 9
-20 -3 -4 3 -12 12 -18 17 -10 17 -10 -2 -11 -16 0 -17 -2 -5 -9 8 -6 19 -7
25 -3 5 3 4 -2 -4 -11 -12 -15 -11 -17 5 -17 15 0 16 -2 5 -9 -9 -6 -10 -10
-2 -12 7 -3 13 -14 14 -27 1 -13 6 -21 14 -18 7 3 10 -1 6 -10 -3 -7 0 -14 7
-14 9 0 9 -4 -1 -17 -10 -11 -10 -14 -2 -9 8 4 13 2 13 -6 0 -7 10 -19 21 -26
16 -10 18 -17 10 -25 -17 -17 -13 -31 4 -17 13 11 14 10 9 -4 -4 -9 0 -18 9
-22 9 -3 14 -14 12 -25 -3 -12 0 -17 7 -13 8 5 9 1 4 -11 -6 -16 -4 -16 11 -4
11 9 14 10 9 2 -4 -7 -3 -13 3 -13 5 0 8 -11 6 -25 -2 -22 0 -23 13 -13 13 10
14 10 8 1 -4 -8 -2 -13 4 -13 6 0 9 -4 5 -9 -3 -6 0 -13 7 -18 7 -4 18 -17 25
-28 6 -11 16 -19 23 -17 7 2 9 -5 5 -18 -5 -15 -3 -18 9 -14 9 3 16 1 16 -5 0
-7 28 -40 63 -74 34 -33 61 -65 60 -69 -2 -4 0 -7 5 -7 4 1 14 1 22 0 13 -1
13 -2 0 -12 -12 -9 -11 -10 7 -6 14 3 21 0 20 -7 -1 -6 4 -10 10 -9 7 2 12 -3
10 -10 -1 -6 6 -11 15 -11 10 1 15 -2 12 -7 -3 -5 0 -9 5 -9 6 0 11 -7 11 -15
0 -8 5 -15 11 -15 5 0 7 5 3 12 -4 6 4 3 18 -8 14 -10 24 -22 21 -26 -2 -5 5
-8 16 -8 12 0 21 -4 21 -10 0 -5 7 -10 15 -10 8 0 15 -7 15 -15 0 -8 5 -15 11
-15 5 0 7 4 4 10 -3 6 1 7 9 4 9 -3 13 -10 10 -15 -3 -5 2 -9 11 -9 10 0 13
-5 9 -12 -5 -8 0 -7 11 2 11 9 16 10 11 2 -4 -7 -1 -12 9 -12 10 0 13 -5 9
-12 -4 -6 -3 -8 4 -5 15 10 43 -3 35 -17 -3 -6 -3 -8 2 -4 4 4 21 -2 36 -13
16 -11 29 -16 29 -11 0 6 -6 13 -12 15 -10 4 -10 6 0 6 7 1 15 -6 18 -14 4 -9
15 -20 26 -26 16 -9 19 -8 12 3 -6 10 -5 11 8 1 8 -7 18 -10 21 -6 4 3 7 1 7
-5 0 -7 9 -12 21 -12 13 0 18 -4 13 -12 -4 -7 -4 -10 1 -6 4 4 15 2 23 -5 11
-8 13 -8 9 0 -5 7 0 9 13 6 11 -3 17 -10 13 -16 -4 -6 0 -8 10 -4 10 3 17 2
17 -3 0 -5 7 -6 17 -3 12 5 14 3 8 -8 -8 -12 -6 -12 8 0 14 11 18 11 23 -2 3
-9 13 -13 25 -10 10 3 19 1 19 -4 0 -5 11 -10 25 -11 40 -3 49 -6 63 -22 8 -8
11 -10 8 -4 -3 6 6 9 25 6 16 -2 29 -8 29 -13 0 -6 10 -5 22 2 17 9 20 9 15
-3 -4 -11 1 -14 18 -10 12 2 26 -1 29 -7 5 -8 13 -8 28 0 17 9 20 9 15 -3 -4
-11 1 -14 18 -10 12 2 26 -1 30 -8 5 -8 10 -8 20 0 9 8 17 7 27 -3 7 -7 19
-12 27 -9 7 2 17 -2 22 -9 7 -11 9 -11 9 -1 0 10 4 10 16 -2 17 -18 39 -22 29
-6 -3 6 1 7 9 4 9 -3 16 -10 16 -14 0 -9 26 -7 36 3 9 9 24 -1 24 -16 0 -7 -4
-6 -11 3 -9 12 -10 12 -7 1 5 -18 66 -22 87 -6 12 8 13 7 6 -4 -6 -11 -4 -13
9 -8 14 6 17 3 12 -10 -5 -15 -4 -15 9 1 8 11 15 15 15 9 0 -6 9 -13 20 -16
11 -3 18 -1 14 4 -3 5 7 4 22 -1 15 -6 34 -10 43 -9 32 3 42 -1 35 -14 -5 -9
-4 -9 6 0 7 6 19 9 28 6 11 -5 13 -2 8 8 -4 8 -1 6 7 -3 10 -13 16 -15 25 -6
7 7 12 8 12 2 0 -13 389 -13 409 0 10 7 12 6 6 -3 -6 -10 -3 -11 13 -2 14 7
23 8 27 1 9 -15 25 -12 25 5 0 8 5 15 11 15 5 0 7 -4 4 -10 -3 -5 -1 -10 4
-10 6 0 11 6 11 13 0 8 4 7 10 -3 5 -8 10 -10 10 -4 0 6 17 10 41 10 30 -1 45
4 56 19 14 18 15 18 9 1 -5 -14 -3 -17 11 -11 10 4 29 8 43 8 14 1 29 6 33 12
6 7 10 6 13 -2 4 -10 8 -10 19 0 7 7 10 17 7 22 -3 6 1 4 10 -3 11 -9 18 -10
23 -2 3 5 11 10 16 10 6 0 7 -4 4 -10 -3 -6 1 -7 9 -4 9 3 16 10 16 15 0 5 5
9 11 9 5 0 7 -6 3 -12 -6 -10 -4 -10 7 0 7 6 21 12 32 12 10 0 15 5 12 10 -9
14 8 12 24 -2 11 -10 13 -10 7 0 -7 11 10 17 41 13 6 -1 15 4 19 10 5 8 3 9
-6 4 -9 -5 -11 -4 -6 3 5 9 13 9 26 2 13 -7 21 -7 25 1 4 6 14 8 22 4 13 -4
13 -3 4 9 -10 12 -6 13 24 10 20 -1 33 1 30 6 -7 11 31 24 45 15 9 -6 14 8 11
28 -1 5 3 6 9 2 6 -3 8 -10 5 -15 -3 -4 6 -3 19 3 13 7 22 15 20 19 -3 4 5 5
16 3 11 -2 20 1 20 6 0 6 5 7 12 3 7 -5 9 -2 5 8 -4 12 -1 14 13 11 11 -3 33
0 51 6 25 8 30 8 26 -2 -5 -15 20 -16 41 -3 6 4 12 3 12 -3 0 -5 9 -8 20 -6
11 2 22 0 25 -6 4 -5 14 -5 27 2 11 6 18 7 15 2 -6 -9 34 -15 86 -14 9 0 17
-6 17 -12 0 -7 4 -6 10 3 8 13 11 12 25 -5 11 -15 13 -16 9 -3 -6 17 5 18 37
4 8 -4 40 -8 70 -9 29 -1 57 -6 61 -12 5 -6 8 -5 8 3 0 7 5 10 10 7 6 -4 8 -9
6 -13 -2 -4 25 -7 60 -7 38 1 64 -3 64 -10 0 -7 3 -7 8 0 6 10 15 11 40 6 4
-1 0 -6 -8 -11 -11 -8 -8 -9 13 -6 16 3 39 1 51 -4 13 -5 29 -4 40 2 13 8 21
7 26 -3 7 -10 12 -10 26 2 12 9 15 10 10 1 -6 -9 -1 -11 18 -8 18 3 24 1 20
-6 -5 -7 -1 -9 9 -5 10 4 17 1 17 -6 0 -8 3 -8 8 -2 6 9 26 12 35 5 1 -1 11
-3 22 -5 11 -2 30 -6 43 -9 12 -3 20 -1 17 3 -3 5 2 12 10 15 9 3 18 -1 22
-10 3 -9 13 -14 24 -11 10 3 20 0 23 -7 3 -7 5 -7 5 2 1 10 6 10 21 2 15 -8
20 -8 20 2 0 9 3 9 10 -2 5 -8 10 -12 10 -8 0 4 11 3 25 -2 21 -8 25 -7 25 8
1 16 1 16 11 -1 8 -14 14 -16 25 -6 11 9 15 8 20 -5 5 -12 10 -14 19 -6 9 8
15 8 20 0 4 -7 12 -7 25 0 14 7 23 6 34 -6 9 -8 16 -11 16 -5 0 6 5 11 11 11
5 0 8 -4 5 -8 -2 -4 10 -6 29 -4 18 2 42 -1 53 -7 14 -7 23 -8 27 -1 3 6 14 7
23 2 9 -4 51 -7 94 -7 48 0 74 -4 71 -10 -3 -5 0 -5 7 2 8 8 20 9 37 2 15 -5
22 -5 18 0 -3 5 -1 13 5 16 6 4 9 1 8 -7 -2 -8 4 -12 16 -10 12 2 16 -1 10
-10 -4 -7 3 -4 15 6 14 13 20 15 16 5 -4 -10 3 -14 25 -14 23 -1 29 3 25 14
-4 11 0 10 15 -4 12 -11 20 -13 20 -6 0 7 5 9 12 5 18 -11 48 -12 54 -2 3 4
14 3 25 -2 14 -8 19 -7 19 2 0 8 3 9 8 3 11 -15 32 -17 32 -2 0 8 3 8 9 -2 8
-12 12 -12 24 -2 11 9 17 9 22 0 6 -8 10 -7 16 2 7 12 9 12 9 0 0 -11 3 -11
15 -1 12 10 15 10 15 0 0 -9 4 -9 17 1 15 12 16 12 8 -1 -8 -13 -7 -13 8 -1
12 9 17 10 17 2 0 -9 5 -9 20 -1 14 8 20 8 20 0 0 -6 5 -8 10 -5 6 4 8 12 4
18 -3 7 1 4 9 -6 11 -13 16 -15 19 -5 4 10 9 10 23 -2 15 -12 17 -12 10 -1 -6
11 -4 13 9 8 14 -5 17 -3 12 8 -5 13 -2 13 19 -1 16 -11 25 -12 25 -5 0 9 5 9
21 0 17 -8 20 -8 14 1 -5 9 -1 10 15 5 17 -5 21 -4 15 5 -6 9 -4 11 6 5 17
-11 49 -14 49 -5 0 3 16 5 35 4 23 -2 33 1 29 7 -4 7 1 7 15 0 14 -8 21 -8 21
-1 0 5 5 10 11 10 5 0 7 -5 3 -11 -4 -7 3 -6 17 2 30 16 89 19 108 5 11 -8 13
-8 8 1 -8 13 39 31 50 19 3 -3 12 -1 20 5 7 6 13 8 13 4 0 -4 8 -1 17 6 9 8
14 9 10 3 -3 -6 0 -11 7 -11 9 0 12 7 8 16 -5 14 -3 14 11 2 13 -10 17 -10 17
-1 0 10 3 10 14 1 10 -9 16 -9 21 -1 4 6 13 9 20 6 7 -2 16 3 20 12 5 14 7 14
15 2 8 -12 10 -12 10 -1 0 8 7 11 18 9 10 -3 23 1 29 8 7 7 25 10 42 8 17 -3
32 0 37 7 5 9 2 10 -10 6 -10 -4 -15 -3 -11 4 4 5 16 7 26 4 11 -4 30 0 43 9
17 11 26 12 35 3 8 -8 11 -8 11 2 0 8 6 11 16 7 8 -3 13 -2 10 3 -3 5 1 12 10
15 10 4 13 2 8 -7 -5 -8 -2 -8 9 2 9 7 23 11 31 8 11 -4 13 -1 9 10 -4 10 -2
14 5 9 6 -3 13 -2 17 3 3 6 12 8 19 5 8 -3 17 0 21 5 3 6 11 9 16 6 5 -4 9 -2
9 4 0 6 7 7 17 4 12 -5 14 -3 8 7 -6 10 -4 12 8 7 9 -3 18 0 21 9 3 8 15 14
27 14 11 0 35 10 52 22 18 13 28 16 23 7 -6 -11 -5 -11 6 1 7 8 20 16 28 18 8
2 17 7 20 11 3 3 15 6 28 5 17 -1 20 2 12 12 -9 9 -7 12 7 9 10 -2 28 -4 40
-4 17 -1 21 -5 16 -18 -4 -11 -3 -14 5 -9 7 4 12 1 12 -8 0 -8 5 -18 12 -22 7
-5 8 -3 3 7 -8 12 -6 12 8 0 13 -10 14 -17 7 -26 -8 -10 -6 -13 7 -11 10 0 17
-4 16 -11 -2 -8 4 -10 14 -6 11 4 14 3 9 -5 -4 -7 -1 -15 8 -18 9 -3 16 -12
16 -19 0 -7 8 -19 18 -26 15 -13 16 -12 3 4 -8 9 -11 20 -9 23 3 3 12 -9 19
-25 9 -20 21 -31 34 -31 17 0 17 -2 5 -10 -13 -8 -13 -10 2 -10 9 0 20 -5 24
-12 5 -7 3 -8 -6 -3 -8 5 -11 4 -6 -3 4 -6 14 -8 23 -5 12 5 14 3 8 -7 -6 -10
-4 -12 8 -7 11 4 14 2 10 -9 -3 -8 1 -14 11 -14 9 0 16 -7 16 -16 0 -8 5 -12
10 -9 6 3 10 1 10 -5 0 -6 5 -8 12 -4 8 5 9 2 5 -10 -4 -11 -3 -15 4 -10 6 3
17 -3 25 -15 9 -12 20 -19 25 -16 8 6 13 -9 10 -29 -1 -5 6 -3 15 5 10 8 15
10 12 4 -8 -14 14 -32 35 -29 15 2 16 0 6 -12 -9 -11 -7 -14 10 -14 11 0 21
-4 21 -10 0 -5 6 -9 13 -7 6 1 11 -4 9 -11 -1 -8 2 -11 8 -7 5 3 10 1 10 -5 0
-6 4 -8 10 -5 6 3 10 1 10 -4 0 -6 7 -11 15 -11 9 0 18 -7 21 -15 4 -8 10 -12
15 -10 4 3 17 -3 29 -15 11 -11 20 -15 20 -8 0 6 7 3 15 -8 8 -10 15 -15 15
-11 0 4 6 2 14 -5 8 -7 11 -17 8 -23 -3 -5 3 -3 13 5 10 8 16 10 12 4 -3 -6 9
-16 28 -24 19 -8 35 -17 35 -22 0 -4 9 -8 21 -8 11 0 18 -4 15 -9 -3 -4 6 -7
19 -5 17 1 25 -3 25 -13 0 -13 3 -13 15 -3 13 11 14 10 10 -2 -6 -15 -2 -16
50 -19 14 -1 25 -6 25 -11 0 -5 -4 -6 -10 -3 -5 3 -10 2 -10 -4 0 -6 14 -9 30
-7 17 2 30 -1 30 -6 0 -5 5 -6 10 -3 6 3 10 1 10 -4 0 -6 12 -11 26 -11 17 0
23 -4 18 -12 -5 -8 0 -7 11 2 13 10 16 11 11 2 -6 -9 -3 -12 10 -10 12 2 18
-2 16 -11 -3 -12 0 -12 12 -1 9 7 16 8 16 3 0 -5 10 -9 22 -10 11 -1 25 -7 29
-14 5 -8 9 -6 12 7 4 17 5 17 6 1 0 -10 6 -15 11 -12 6 4 17 1 25 -5 10 -8 15
-9 15 -2 0 13 31 4 42 -12 5 -7 8 -7 8 2 0 7 5 10 10 7 6 -4 7 -11 4 -17 -4
-7 0 -7 13 0 11 6 25 7 33 2 8 -5 22 -4 32 1 14 8 18 6 18 -8 0 -13 3 -14 11
-6 9 9 16 9 29 0 14 -8 23 -7 36 4 11 9 15 9 10 2 -5 -10 15 -13 91 -13 65 0
104 4 112 13 11 10 13 10 7 0 -9 -16 10 -17 19 -3 5 8 11 7 21 -1 10 -8 18 -8
27 -1 7 6 22 11 32 11 45 1 61 4 74 15 12 9 13 8 6 -4 -6 -12 -5 -13 6 -2 7 6
23 12 36 12 13 0 23 6 23 13 0 8 3 7 10 -3 8 -12 10 -12 16 3 5 14 9 15 20 6
11 -9 14 -9 14 0 0 7 5 9 10 6 6 -3 10 -1 10 5 0 6 4 9 9 6 5 -3 12 1 15 10 5
13 9 14 20 5 8 -7 15 -8 18 -2 1 5 10 11 18 13 8 2 21 10 28 18 8 8 11 9 7 3
-4 -8 -1 -11 9 -7 8 3 17 11 19 19 3 7 18 12 36 10 17 -1 28 1 25 6 -3 5 -11
6 -17 2 -7 -4 -6 0 2 10 7 9 17 15 21 12 5 -3 16 2 24 11 9 8 16 12 16 8 0 -4
9 5 20 19 13 16 27 24 36 20 9 -3 14 0 12 8 -2 8 4 13 15 13 9 -1 17 4 17 11
0 13 31 45 44 45 5 0 -2 -9 -15 -21 l-24 -20 28 17 c15 9 25 19 22 22 -8 9 17
32 28 25 6 -3 7 -1 3 5 -4 7 -2 12 4 12 7 0 10 7 7 14 -4 10 -1 13 9 9 10 -4
17 2 21 16 3 11 10 18 16 14 7 -4 8 0 3 12 -5 15 -4 16 9 5 13 -11 14 -10 9 5
-5 12 -4 16 3 12 12 -8 26 20 17 34 -3 5 0 8 8 7 7 -2 12 5 12 15 -2 14 1 15
13 6 8 -7 13 -8 12 -3 -4 22 2 34 19 35 11 0 12 2 4 6 -9 4 -7 10 8 23 12 10
21 22 22 27 0 4 4 7 10 5 5 -1 7 2 4 7 -7 11 22 71 35 71 6 0 8 4 4 10 -3 5 4
19 15 30 11 11 18 26 14 32 -5 8 -1 9 11 4 14 -5 15 -4 7 7 -7 8 -7 18 -2 27
13 21 12 33 -2 24 -7 -4 -8 -3 -4 4 4 6 13 9 21 5 11 -4 13 -1 9 11 -4 9 -1
16 6 16 9 0 9 4 -1 17 -10 11 -10 14 -1 9 7 -4 12 -2 12 4 0 6 5 8 13 4 8 -5
8 -2 -2 9 -12 15 -11 17 5 17 15 0 16 2 5 9 -10 6 -10 10 -1 16 6 4 9 14 6 22
-3 8 -2 12 3 9 5 -3 12 1 15 10 4 10 2 13 -7 8 -9 -5 -9 -4 1 7 6 7 12 24 12
37 0 13 4 20 10 17 6 -4 7 1 3 11 -5 13 -3 15 7 9 10 -6 10 -4 2 10 -7 14 -6
22 4 33 11 11 12 17 3 28 -9 12 -9 13 3 9 11 -4 14 1 13 17 -2 29 5 49 15 43
4 -2 5 6 3 19 -3 13 2 37 11 54 18 36 20 46 6 37 -5 -3 -10 -1 -10 4 0 6 4 11
8 11 4 0 8 8 9 18 3 44 8 62 16 62 5 0 6 7 3 16 -4 9 -1 23 5 30 9 11 9 14 0
14 -8 0 -6 11 5 33 16 30 16 31 0 18 -16 -13 -16 -12 -5 12 7 15 17 23 23 20
6 -4 5 1 -3 11 -13 15 -13 19 0 27 11 7 11 9 0 9 -10 0 -11 3 -2 14 9 10 9 16
1 21 -8 5 -5 12 7 22 10 8 12 12 6 8 -7 -3 -13 -1 -13 4 0 6 3 11 8 11 4 0 7
19 6 43 0 23 3 54 7 68 4 14 2 34 -3 44 -7 12 -7 16 0 11 5 -3 12 5 14 19 3
13 2 22 -2 20 -5 -3 -10 2 -14 10 -3 8 0 17 6 21 6 4 8 3 5 -3 -3 -5 0 -10 7
-10 11 0 11 5 0 26 -8 16 -10 27 -4 29 6 2 10 8 10 13 0 6 -4 8 -8 5 -5 -3 -9
1 -9 8 0 9 7 12 16 9 13 -5 14 -3 4 8 -7 7 -13 17 -13 22 0 4 6 5 13 1 9 -6 9
-4 -1 8 -8 10 -9 19 -3 22 5 3 7 15 4 26 -3 11 -10 17 -17 13 -6 -4 -5 1 3 11
17 20 21 66 6 66 -5 0 -3 5 5 10 8 5 11 10 5 10 -5 0 -10 11 -10 25 0 14 3 25
6 25 3 0 6 7 6 15 0 8 -4 15 -9 15 -5 0 -4 8 1 18 7 13 6 23 -1 30 -8 8 -8 12
-2 12 6 0 11 7 11 15 0 8 -3 15 -7 15 -4 0 -7 7 -7 15 0 8 5 15 10 15 5 0 4 7
-3 15 -10 12 -10 15 1 15 12 0 12 2 0 9 -9 6 -10 10 -2 16 9 5 9 10 0 21 -9
11 -8 14 2 14 11 0 11 2 0 9 -12 8 -12 12 -2 25 10 12 10 16 2 16 -7 0 -9 5
-5 12 12 19 9 50 -5 77 -7 13 -9 21 -3 17 5 -3 13 1 16 10 9 24 7 31 -5 14 -9
-12 -10 -11 -6 6 2 12 0 29 -6 39 -8 15 -7 17 9 12 16 -6 17 -5 4 5 -19 16
-19 56 0 69 13 9 13 10 -1 6 -14 -5 -16 3 -15 54 2 33 -2 62 -6 65 -5 3 -4 12
3 20 6 8 8 14 3 14 -12 0 -11 61 0 79 7 11 5 13 -8 8 -11 -4 -15 -3 -10 4 9
15 12 69 3 69 -4 0 -5 10 -1 22 3 14 1 19 -6 14 -8 -5 -10 -2 -6 8 3 9 10 13
15 10 5 -3 6 2 3 10 -3 9 -11 16 -18 16 -7 0 -7 3 -1 8 12 9 14 62 3 62 -5 0
-4 10 3 21 9 17 8 20 -3 13 -11 -6 -11 -5 1 9 11 14 11 17 0 17 -9 0 -10 3 -4
8 16 11 19 46 3 36 -10 -6 -10 -5 0 9 8 9 11 21 7 27 -3 5 2 10 12 11 10 0 13
3 6 5 -7 3 -9 12 -6 20 4 10 0 12 -13 7 -16 -6 -17 -5 -4 9 8 9 20 13 25 10 6
-2 5 1 -2 8 -7 7 -8 22 -3 40 4 15 4 33 -1 41 -4 8 -3 19 3 26 5 7 8 20 4 28
-3 9 -2 13 4 10 14 -9 12 9 -2 24 -11 10 -10 12 1 9 10 -2 14 12 15 60 1 49 4
61 15 57 11 -4 11 -2 3 8 -9 10 -8 17 1 27 10 10 9 11 -1 5 -11 -6 -12 -3 -4
11 6 11 9 36 8 56 -1 23 4 40 12 43 10 4 10 9 1 26 -9 17 -8 20 2 14 9 -6 11
-3 6 8 -3 9 -2 19 4 23 6 4 6 11 -2 20 -9 11 -8 14 2 14 10 0 10 3 1 12 -9 9
-8 16 6 32 12 14 13 17 2 11 -13 -7 -13 -6 -2 7 7 9 12 20 11 24 -1 5 -1 24 0
42 1 24 5 31 14 26 9 -6 9 -4 -1 8 -8 10 -9 19 -3 22 5 4 8 20 6 36 -2 17 1
30 7 30 7 0 7 5 -1 14 -9 11 -9 16 0 22 8 5 9 3 4 -6 -5 -8 -4 -11 3 -7 11 8
11 25 -1 44 -4 6 -1 17 6 24 7 7 11 24 9 37 -4 19 -2 23 9 17 11 -6 12 -5 2 6
-15 15 -18 33 -5 25 5 -3 9 1 9 9 0 8 -5 15 -11 15 -5 0 -1 7 10 16 10 8 13
13 7 9 -7 -3 -13 -1 -13 4 0 6 4 11 8 11 5 0 8 18 7 40 -1 22 2 40 7 40 11 0
6 23 -7 32 -6 5 -3 8 6 8 12 0 15 8 13 32 -2 17 1 37 7 45 9 10 8 13 0 13 -8
0 -7 7 3 22 11 16 13 25 4 35 -7 9 -7 13 0 13 6 0 9 17 8 40 -2 22 0 40 4 40
11 0 7 30 -4 30 -6 0 -3 5 7 11 9 5 17 15 17 20 0 6 -4 7 -10 4 -5 -3 -10 -1
-10 4 0 6 5 11 12 11 6 0 9 3 5 6 -3 3 -2 17 4 31 5 13 5 22 1 19 -4 -2 -8 4
-8 15 0 11 5 18 11 15 6 -2 11 4 11 14 0 10 -4 16 -8 14 -4 -3 -8 0 -8 5 0 6
6 11 13 11 7 1 5 6 -6 14 -18 14 -17 15 4 21 15 5 18 9 9 15 -9 6 -9 12 -1 29
7 13 8 21 2 21 -6 0 -8 7 -5 15 4 8 9 13 13 10 4 -2 8 2 8 10 0 8 -4 15 -9 15
-4 0 -8 5 -8 11 0 5 5 7 11 3 8 -4 8 -1 1 12 -7 14 -6 25 4 38 8 12 10 25 5
34 -5 9 -5 28 1 44 6 15 7 35 4 44 -4 9 -2 13 5 8 7 -4 10 -1 7 7 -3 8 -1 22
4 32 6 11 5 17 -2 17 -7 0 -8 7 -3 18 4 9 8 53 8 97 0 59 4 83 15 93 13 11 13
11 0 7 -12 -4 -15 4 -14 39 0 24 7 52 15 62 13 16 12 17 -6 11 -20 -7 -20 -7
-1 8 14 11 16 15 5 15 -12 0 -12 2 1 10 13 9 13 10 0 10 -13 0 -13 1 0 10 13
9 13 10 0 10 -13 0 -13 1 0 10 13 9 13 10 0 10 -12 0 -12 2 -1 9 9 6 10 11 2
15 -6 4 -8 13 -4 19 13 21 13 68 0 60 -9 -5 -9 -3 -1 8 6 8 11 28 10 44 -1 17
2 38 6 47 5 9 5 19 0 21 -4 3 -7 42 -6 86 1 54 -2 81 -10 81 -8 0 -8 3 0 8 13
9 14 102 1 102 -5 0 -4 7 4 16 10 13 10 17 -2 25 -12 7 -12 9 1 9 12 0 12 2 1
9 -7 5 -9 11 -4 14 12 7 10 64 -2 74 -4 5 -5 3 -1 -4 3 -6 3 -14 -2 -17 -4 -2
-8 6 -8 20 0 18 4 23 15 19 12 -4 11 -1 -2 9 -12 10 -15 16 -7 21 8 5 6 12 -5
25 -13 14 -13 19 -3 22 10 4 10 8 1 20 -10 11 -10 17 -1 26 7 7 8 12 2 12 -5
0 -11 14 -12 31 -3 44 -6 53 -17 61 -6 5 -5 8 3 8 10 0 10 5 2 20 -8 15 -8 20
2 20 8 0 7 4 -3 10 -11 6 -15 20 -13 40 2 16 -1 30 -6 30 -5 0 -7 10 -5 22 3
12 -1 28 -8 37 -9 12 -9 13 1 7 6 -4 12 -2 12 3 0 6 -5 11 -11 11 -5 0 -7 5
-4 10 3 6 2 10 -4 10 -10 0 -10 18 1 36 4 6 -2 21 -13 33 -11 11 -19 27 -18
34 3 28 -2 48 -11 42 -7 -4 -9 3 -6 19 3 14 0 28 -5 32 -5 3 -7 10 -4 15 4 5
1 9 -4 9 -6 0 -10 3 -10 8 4 21 -2 32 -13 26 -8 -5 -7 0 2 11 8 10 10 16 4 12
-7 -4 -14 0 -17 7 -3 8 -1 17 6 20 9 3 9 5 0 5 -7 1 -13 8 -13 16 0 8 -4 15
-10 15 -5 0 -6 7 -3 17 4 11 3 14 -5 9 -8 -5 -12 2 -12 19 0 26 -22 58 -34 50
-3 -3 -2 0 3 6 6 8 5 17 -5 26 -8 8 -11 20 -7 26 4 7 0 8 -11 4 -10 -4 -15 -3
-11 3 3 6 1 10 -4 10 -6 0 -10 3 -10 8 4 24 -2 42 -13 36 -8 -5 -9 -2 -5 9 4
11 1 17 -8 17 -8 0 -14 6 -13 13 2 6 -3 11 -11 9 -9 -2 -11 3 -7 13 3 9 -1 18
-9 21 -8 4 -12 10 -9 15 3 5 0 9 -5 9 -6 0 -21 10 -33 22 -18 18 -18 20 -3 15
15 -6 16 -5 5 8 -7 8 -19 15 -28 15 -8 0 -13 3 -9 6 9 9 -51 67 -62 59 -7 -4
-8 0 -4 11 5 13 3 15 -7 9 -10 -6 -12 -4 -6 11 4 10 4 15 0 11 -4 -4 -13 1
-21 11 -8 9 -12 11 -8 5 4 -8 1 -11 -9 -7 -8 3 -18 15 -21 25 -5 16 -10 18
-20 9 -11 -10 -13 -8 -10 9 2 12 0 19 -5 16 -5 -3 -11 -1 -15 5 -4 6 -10 8
-15 5 -5 -3 -12 4 -15 16 -6 17 -9 19 -16 8 -7 -11 -9 -11 -9 -1 0 7 -4 10
-10 7 -6 -4 -7 1 -3 11 4 11 3 15 -4 11 -15 -9 -44 3 -37 14 3 5 2 8 -3 7 -13
-4 -83 24 -83 34 0 4 -5 8 -11 8 -5 0 -7 -6 -3 -12 4 -7 -2 -4 -14 6 -12 11
-22 15 -22 11 0 -5 -5 -4 -12 3 -7 7 -21 12 -33 12 -12 0 -27 6 -34 13 -11 10
-12 9 -6 -3 6 -12 5 -13 -6 -2 -7 6 -24 12 -37 12 -13 0 -21 4 -18 8 3 5 -1 9
-9 9 -8 0 -12 -3 -10 -7 2 -4 -2 -7 -10 -7 -8 0 -14 3 -13 6 2 19 -4 24 -12
11 -9 -13 -11 -13 -20 0 -8 13 -10 13 -10 0 0 -10 -3 -11 -11 -3 -6 6 -18 9
-27 6 -10 -5 -13 -2 -8 6 6 9 3 9 -13 -1 -18 -11 -23 -11 -31 2 -9 13 -10 13
-10 0 0 -13 -1 -13 -10 0 -9 13 -10 13 -10 0 0 -13 -1 -13 -10 0 -9 13 -10 13
-10 0 0 -12 -2 -13 -9 -1 -7 11 -9 11 -14 0 -5 -12 -6 -12 -6 0 -1 11 -4 11
-18 0 -13 -11 -17 -11 -20 -1 -3 6 -9 12 -14 12 -6 0 -7 -5 -3 -11 4 -7 -1 -7
-16 1 -15 8 -20 8 -16 1 4 -6 2 -11 -3 -11 -6 0 -11 6 -11 13 0 8 -3 8 -8 2
-4 -6 -18 -11 -32 -10 -14 0 -39 -5 -56 -12 -18 -7 -41 -10 -53 -8 -12 2 -21
-1 -21 -8 0 -9 -2 -9 -8 0 -6 10 -12 10 -28 -2 -10 -8 -29 -15 -41 -15 -12 0
-25 -5 -28 -11 -4 -5 -12 -8 -18 -6 -7 2 -20 -2 -30 -11 -12 -11 -17 -12 -17
-2 0 7 -9 2 -21 -11 -11 -13 -17 -17 -13 -9 5 9 -1 8 -15 -5 -13 -11 -26 -20
-30 -20 -3 0 -5 -4 -3 -9 2 -5 -4 -6 -13 -3 -20 8 -47 -2 -39 -15 4 -6 1 -9
-7 -6 -8 3 -20 -2 -27 -11 -8 -9 -11 -11 -8 -4 5 8 0 8 -18 0 -14 -7 -20 -15
-14 -18 5 -4 3 -9 -6 -12 -9 -4 -16 -2 -16 4 0 6 -9 1 -21 -12 -11 -13 -17
-18 -13 -10 5 9 3 12 -4 7 -7 -4 -12 -13 -12 -21 0 -8 -8 -12 -20 -10 -11 2
-19 -1 -17 -8 1 -7 -6 -11 -16 -10 -12 1 -17 -4 -13 -14 3 -8 1 -11 -4 -8 -5
3 -17 -3 -27 -14 -9 -11 -21 -17 -26 -14 -6 4 -8 -1 -4 -11 5 -11 3 -15 -4
-10 -7 4 -21 -4 -31 -17 -11 -13 -17 -17 -13 -9 4 8 0 6 -9 -4 -8 -10 -13 -23
-10 -28 3 -5 0 -7 -8 -6 -7 2 -12 -2 -11 -9 2 -7 -4 -10 -12 -7 -13 6 -20 -6
-16 -28 0 -5 -9 -8 -21 -8 -19 0 -20 -2 -8 -10 13 -9 13 -10 0 -11 -8 -1 -19
-1 -23 0 -5 1 -6 -3 -2 -9 3 -5 1 -10 -4 -10 -6 0 -11 -7 -11 -15 0 -8 -4 -15
-10 -15 -5 0 -6 -8 -3 -17 5 -13 2 -15 -11 -10 -10 4 -15 3 -11 -3 3 -6 2 -10
-4 -10 -6 0 -8 -7 -5 -15 4 -8 1 -15 -6 -15 -6 0 -8 -5 -4 -12 5 -7 2 -9 -8
-6 -8 4 -15 0 -15 -8 0 -7 5 -10 11 -7 6 4 2 -4 -9 -18 -11 -13 -21 -26 -22
-28 -1 -2 -6 5 -10 15 -10 27 -29 44 -39 36 -5 -4 -2 1 5 10 11 15 10 17 -8
13 -14 -2 -18 1 -14 11 3 8 0 14 -7 14 -6 0 -9 4 -5 9 3 5 -4 12 -15 16 -11 4
-18 10 -15 15 3 5 -6 17 -20 28 -13 11 -21 22 -18 26 3 3 -1 6 -11 6 -9 0 -14
5 -11 10 3 5 -1 10 -9 10 -9 0 -16 5 -16 11 0 16 -26 39 -36 31 -5 -4 -2 1 6
11 7 10 9 17 4 16 -21 -4 -34 2 -34 16 0 8 -6 15 -14 15 -8 0 -18 5 -22 12 -5
7 -2 9 7 4 8 -4 2 3 -13 16 -14 13 -36 34 -48 48 -12 14 -18 19 -14 11 5 -9 3
-12 -4 -7 -7 4 -12 16 -12 28 0 14 -5 18 -15 14 -14 -5 -20 5 -16 27 1 5 -3 6
-9 2 -5 -3 -13 1 -16 9 -3 9 -11 13 -17 9 -6 -4 -8 0 -4 11 4 10 3 15 -3 11
-6 -3 -13 1 -16 9 -3 9 -12 16 -20 16 -13 0 -18 12 -15 32 0 4 -6 5 -14 2 -10
-4 -15 0 -15 12 0 9 -3 15 -6 11 -9 -9 -44 25 -37 36 3 6 2 7 -3 4 -6 -3 -16
-2 -24 4 -13 7 -13 9 0 10 8 0 4 4 -10 8 -14 4 -25 14 -24 23 1 8 -5 15 -12
16 -8 1 -21 3 -29 4 -11 1 -12 5 -4 14 8 10 6 12 -10 9 -12 -2 -19 0 -16 6 4
5 -1 9 -9 9 -9 0 -15 6 -14 13 2 6 -5 11 -14 11 -10 -1 -17 1 -16 5 0 3 0 13
-1 21 -1 13 -2 13 -11 0 -9 -13 -10 -13 -11 0 -1 8 -1 19 0 24 1 5 -4 6 -11 4
-14 -5 -50 27 -41 36 4 3 -3 6 -15 6 -14 0 -22 6 -22 18 0 14 -2 15 -10 2 -7
-11 -10 -12 -10 -2 0 16 -19 36 -42 45 -10 3 -18 11 -18 17 0 6 -4 8 -10 5 -5
-3 -15 3 -22 15 -7 11 -19 20 -26 20 -7 0 -10 5 -7 10 3 6 -1 10 -9 10 -8 0
-20 9 -26 20 -6 11 -15 20 -20 20 -15 0 -50 33 -44 41 2 4 -4 6 -15 4 -15 -3
-18 1 -14 18 3 16 2 18 -5 8 -7 -9 -12 -10 -16 -2 -4 6 -4 11 1 11 4 0 -7 9
-25 20 -18 11 -37 30 -42 43 -5 13 -9 16 -10 7 0 -8 -9 -1 -21 18 -12 17 -25
32 -30 32 -16 0 -58 47 -51 56 4 4 -1 4 -10 1 -10 -4 -18 -2 -18 4 0 14 -26
39 -39 39 -6 0 -11 5 -11 10 0 6 -8 10 -17 10 -16 0 -16 2 -3 11 12 9 11 10
-7 6 -15 -3 -20 -1 -16 9 3 9 -1 14 -12 14 -9 0 -13 5 -10 10 3 6 -1 10 -9 10
-9 0 -16 7 -16 15 0 9 -6 12 -17 8 -13 -5 -15 -3 -9 12 4 11 4 16 0 13 -10
-10 -46 11 -39 23 4 5 -1 9 -9 9 -8 0 -22 10 -30 22 -9 12 -16 18 -16 13 0 -5
-9 1 -21 13 -11 12 -25 20 -30 16 -12 -7 -7 18 6 29 6 5 3 7 -7 3 -10 -3 -20
-1 -24 5 -3 6 -12 8 -20 5 -8 -3 -13 -2 -13 2 4 22 -4 32 -23 32 -19 0 -20 2
-8 10 11 7 12 10 2 10 -7 0 -20 7 -29 15 -8 8 -19 12 -25 9 -7 -4 -8 -2 -4 4
4 7 2 12 -4 12 -6 0 -8 5 -5 10 4 6 1 9 -7 8 -7 -2 -12 3 -10 10 1 8 -2 11 -7
8 -15 -10 -43 6 -37 21 3 8 2 12 -3 9 -5 -3 -14 1 -21 9 -7 8 -16 12 -21 9 -5
-3 -9 -2 -8 3 1 4 1 15 0 23 -1 13 -2 13 -11 0 -8 -13 -10 -12 -10 3 0 10 -4
15 -10 12 -5 -3 -10 -1 -10 5 0 6 -5 8 -10 5 -5 -3 -10 0 -10 8 0 8 -10 17
-21 20 -15 4 -20 11 -15 22 3 9 2 13 -4 10 -13 -8 -52 14 -45 26 4 5 -2 9 -12
9 -10 0 -29 12 -42 25 -13 14 -28 25 -33 25 -6 0 -4 7 3 17 13 15 12 15 -11 3
-14 -7 -22 -9 -18 -5 9 9 -52 65 -72 65 -13 0 -13 1 0 10 12 8 11 10 -7 10
-14 0 -23 6 -23 15 0 8 -3 14 -7 14 -20 -3 -34 2 -28 11 3 6 -4 14 -17 19 -13
5 -30 18 -38 30 -10 15 -16 17 -22 8 -5 -8 -8 -3 -8 13 0 20 -2 22 -10 10 -9
-13 -10 -13 -11 0 -1 8 -1 19 0 23 1 5 -3 6 -9 2 -5 -3 -10 -1 -10 4 0 6 -7
11 -15 11 -9 0 -18 7 -21 15 -4 8 -10 13 -14 10 -5 -3 -11 4 -15 14 -4 12 -12
18 -21 14 -7 -3 -14 0 -14 7 0 15 -26 41 -34 33 -3 -4 -6 -1 -6 5 0 5 -16 20
-35 32 -19 12 -35 29 -35 37 0 12 -3 13 -15 3 -12 -10 -14 -8 -10 9 2 11 1 20
-3 20 -29 -4 -41 3 -37 22 4 17 2 19 -10 9 -12 -10 -15 -9 -15 4 0 9 -5 16
-11 16 -5 0 -7 5 -3 12 4 7 3 8 -5 4 -12 -8 -44 18 -34 28 4 3 -4 6 -16 6 -18
0 -21 4 -17 23 3 12 3 16 0 10 -8 -18 -41 1 -49 27 -4 11 -10 18 -15 15 -4 -3
-10 2 -14 10 -3 8 -10 15 -16 15 -14 0 -34 20 -43 43 -3 9 -13 17 -22 17 -8 0
-15 5 -15 11 0 5 -4 8 -9 5 -5 -3 -14 8 -21 24 -7 16 -16 27 -21 24 -5 -3 -9
0 -9 5 0 6 -7 11 -16 11 -8 0 -13 4 -10 8 3 5 -6 15 -20 22 -14 8 -22 20 -19
27 2 8 0 11 -5 8 -6 -3 -20 1 -32 9 -12 9 -19 16 -15 16 4 0 -1 9 -10 19 -9
11 -20 18 -25 15 -7 -5 -12 10 -9 29 1 5 -3 6 -9 2 -5 -3 -10 1 -10 10 0 9 -5
13 -10 10 -6 -3 -13 1 -16 10 -4 9 -13 14 -22 10 -13 -5 -13 -3 -1 12 9 11 10
14 2 9 -7 -4 -13 -3 -13 3 0 5 -9 13 -20 16 -11 4 -20 15 -20 26 0 11 -4 18
-9 14 -6 -3 -15 4 -21 15 -6 11 -15 18 -21 15 -5 -4 -9 -3 -8 2 3 20 -2 34
-11 28 -5 -3 -10 -1 -10 5 0 6 -5 8 -12 4 -7 -5 -8 -3 -3 5 9 16 -53 83 -69
74 -6 -3 -8 -3 -4 1 9 11 -14 36 -26 28 -5 -3 -6 0 -2 6 3 6 2 13 -4 17 -6 4
-8 11 -5 16 3 5 -2 6 -11 2 -11 -4 -15 -3 -10 5 3 6 -3 14 -15 17 -16 5 -18 9
-9 15 9 6 7 10 -8 14 -11 4 -22 16 -25 27 -3 12 -10 18 -16 15 -6 -4 -13 5
-17 19 -3 14 -9 24 -11 21 -7 -7 -27 14 -36 37 -3 9 -11 17 -17 17 -6 0 -8 5
-5 10 3 6 -1 10 -10 10 -12 0 -15 5 -11 17 4 10 4 14 0 11 -9 -9 -31 14 -36
38 -2 12 -10 18 -22 16 -10 -2 -15 1 -12 7 4 6 -8 25 -26 42 -18 18 -26 29
-18 25 8 -4 7 -1 -4 8 -10 8 -15 19 -11 25 3 7 0 8 -10 5 -11 -5 -14 -2 -9 10
4 11 2 16 -7 14 -8 -2 -13 3 -12 10 2 6 -5 12 -15 12 -12 0 -13 3 -5 8 9 6 7
12 -7 22 -11 8 -20 20 -20 27 0 7 -9 17 -21 23 -12 7 -18 18 -15 26 3 8 0 13
-7 11 -7 -1 -11 6 -11 15 1 10 -3 16 -10 15 -6 -1 -10 6 -8 15 2 13 -2 16 -14
11 -11 -4 -15 -3 -10 5 3 6 -2 15 -11 21 -14 8 -15 10 -3 11 13 0 13 2 0 9 -8
6 -19 7 -25 3 -5 -3 -3 3 5 13 9 11 10 16 3 11 -9 -5 -13 0 -13 14 0 12 -4 18
-10 15 -5 -3 -10 1 -10 9 0 9 -5 16 -11 16 -6 0 -8 7 -5 16 3 9 2 12 -5 9 -6
-4 -13 2 -16 14 -3 12 -10 21 -17 21 -6 0 -4 5 4 10 13 9 13 10 0 11 -8 1 -18
1 -22 0 -5 0 -7 2 -7 7 4 23 -2 42 -12 37 -6 -4 -9 0 -7 11 2 11 -2 18 -9 17
-7 -2 -10 6 -8 17 3 14 -2 20 -13 20 -15 0 -15 2 -2 10 13 9 7 14 -12 11 -4 0
-5 6 -2 14 4 8 2 15 -3 15 -5 0 -10 10 -10 22 -1 13 -7 24 -13 26 -5 2 -10 10
-10 18 0 8 -6 14 -12 14 -10 0 -9 3 1 9 9 6 10 10 2 12 -7 3 -13 14 -14 26 0
12 -5 19 -9 17 -4 -3 -8 -2 -9 3 -3 33 -12 59 -24 73 -8 9 -15 22 -15 28 0 6
-7 18 -16 26 -10 11 -11 16 -3 16 8 0 6 6 -4 18 -10 10 -14 22 -10 25 3 4 0 7
-8 7 -11 0 -11 2 1 10 13 8 12 10 -2 10 -13 0 -18 8 -18 26 0 14 -4 23 -8 20
-4 -2 -9 5 -9 17 -1 12 -7 23 -13 25 -8 3 -7 8 1 18 9 11 8 14 -7 14 -16 0
-17 2 -4 10 13 8 13 10 -1 10 -15 0 -19 11 -20 59 -1 18 -3 21 -10 10 -7 -11
-9 -9 -9 9 0 12 -5 22 -10 22 -6 0 -9 3 -9 8 3 19 -2 33 -11 27 -7 -4 -7 2 0
19 5 14 6 25 2 25 -18 -3 -32 2 -32 12 0 5 5 7 10 4 6 -4 1 10 -10 29 -11 20
-20 38 -20 41 0 3 0 12 0 21 0 8 -4 12 -10 9 -6 -3 -7 1 -4 9 3 9 1 16 -6 16
-6 0 -8 5 -5 10 3 6 2 10 -4 10 -5 0 -8 9 -6 20 2 11 -1 20 -6 20 -6 0 -9 6
-6 13 2 6 -3 18 -12 25 -13 11 -13 12 -1 6 11 -6 10 -2 -2 13 -10 11 -18 30
-18 42 0 15 -4 20 -12 15 -8 -5 -7 0 2 11 9 11 10 16 3 11 -8 -4 -13 -1 -13 8
0 9 -6 16 -12 16 -9 0 -8 4 2 10 12 8 12 10 -5 10 -14 0 -16 3 -7 8 9 7 8 13
-8 27 -15 14 -17 21 -9 32 9 10 8 13 -6 13 -14 0 -15 3 -6 14 9 10 8 15 -4 19
-8 4 -12 13 -9 22 4 9 1 15 -7 15 -12 0 -12 2 -1 9 11 7 10 9 -3 15 -11 4 -14
12 -10 26 4 14 2 20 -6 18 -7 -2 -13 2 -14 9 0 6 -3 15 -7 18 -4 4 -2 17 4 28
9 17 8 19 -7 14 -11 -5 -15 -3 -12 5 2 7 0 23 -4 35 -5 13 -4 25 2 28 5 4 7
11 3 16 -3 5 -11 6 -17 2 -7 -4 -6 0 2 10 12 15 11 17 -5 17 -16 0 -17 2 -4
10 12 8 13 13 2 30 -7 11 -8 20 -4 20 5 0 9 7 9 15 0 8 -5 15 -10 15 -5 0 -7
7 -3 15 3 8 0 15 -6 15 -7 0 -6 5 2 15 11 13 10 14 -4 9 -18 -7 -19 15 -1 28
6 5 5 8 -2 8 -7 0 -10 6 -7 14 3 8 0 17 -7 22 -8 5 -10 3 -4 -6 5 -9 4 -11 -3
-6 -9 5 -9 13 -2 27 8 14 7 19 -1 19 -8 0 -7 5 2 17 12 15 12 16 -3 10 -12 -4
-15 -2 -11 9 3 7 1 14 -4 14 -5 0 -9 9 -10 20 -1 13 2 18 10 13 7 -4 7 -1 -1
10 -8 9 -11 21 -8 26 4 6 -3 8 -15 6 -16 -3 -19 -1 -12 6 12 12 5 51 -8 43 -5
-3 -7 9 -5 25 2 22 -1 31 -11 31 -8 0 -11 5 -8 10 3 6 0 10 -7 10 -11 0 -10 2
0 9 11 7 11 9 -2 14 -9 4 -16 15 -16 26 0 11 -8 22 -17 24 -15 4 -15 5 2 6 18
1 18 2 -3 17 -13 9 -21 22 -18 30 3 8 -1 14 -10 14 -10 0 -14 6 -11 15 4 8 1
17 -5 21 -7 5 -8 2 -3 -6 5 -9 4 -11 -3 -6 -7 4 -12 16 -12 27 0 11 -4 17 -10
14 -9 -6 -14 8 -11 28 0 4 -6 7 -15 7 -8 0 -12 5 -9 10 3 6 1 10 -5 10 -6 0
-8 5 -5 10 3 6 -1 10 -9 10 -9 0 -16 6 -16 14 0 8 -9 22 -21 30 -12 8 -19 19
-15 24 3 5 -5 8 -19 7 -17 -2 -22 1 -18 11 3 9 -1 14 -12 14 -9 0 -13 5 -10
10 3 6 -1 10 -9 10 -9 0 -16 7 -16 16 0 8 -4 13 -9 10 -5 -3 -20 6 -34 20 -15
15 -31 23 -38 18 -8 -4 -9 -3 -5 4 6 11 -6 16 -26 13 -5 0 -7 5 -5 12 1 6 -7
12 -18 12 -11 1 -19 5 -18 11 1 6 -10 10 -25 10 -17 -1 -27 4 -27 14 -1 16 -6
16 -40 5 -16 -6 -17 -5 -5 4 13 10 8 15 -12 12 -5 0 -8 3 -8 8 0 4 -11 7 -24
6 -19 -2 -23 1 -19 13 5 13 3 14 -7 5 -9 -8 -19 -9 -36 -1 -13 6 -22 14 -19
17 2 4 -11 6 -28 6 -43 -2 -63 5 -46 15 7 5 -7 7 -29 5 -23 -1 -42 1 -42 5 0
13 -39 19 -43 6 -3 -7 -10 -5 -23 6 -15 13 -23 14 -38 6 -13 -7 -17 -7 -12 0
3 6 2 13 -4 17 -5 3 -10 0 -10 -7 0 -9 -3 -9 -8 -2 -8 12 -266 14 -278 2 -4
-4 -14 -2 -22 5 -13 9 -14 9 -8 0z m-1064 -1423 c0 -5 -5 -10 -11 -10 -5 0 -7
5 -4 10 3 6 8 10 11 10 2 0 4 -4 4 -10z m250 -460 c0 -5 -2 -10 -4 -10 -3 0
-8 5 -11 10 -3 6 -1 10 4 10 6 0 11 -4 11 -10z m-4 -65 c-3 -8 -1 -15 4 -15 6
0 10 -5 10 -11 0 -8 -4 -8 -14 1 -13 10 -12 40 1 40 3 0 3 -7 -1 -15z m14 -65
c0 -11 -4 -20 -9 -20 -6 0 -9 9 -8 20 1 11 5 20 9 20 4 0 8 -9 8 -20z m2601
-957 c13 -16 12 -17 -3 -4 -10 7 -18 15 -18 17 0 8 8 3 21 -13z m29 -58 c0 -5
-5 -3 -10 5 -5 8 -10 20 -10 25 0 6 5 3 10 -5 5 -8 10 -19 10 -25z m955 -695
c3 -5 1 -10 -4 -10 -6 0 -11 5 -11 10 0 6 2 10 4 10 3 0 8 -4 11 -10z m-385
-135 c7 -9 8 -15 2 -15 -5 0 -12 7 -16 15 -3 8 -4 15 -2 15 2 0 9 -7 16 -15z
m49 -65 c14 -21 28 -37 33 -34 4 3 8 -1 8 -9 0 -7 9 -23 20 -35 11 -12 20 -27
20 -34 0 -7 -11 0 -23 17 -64 85 -97 135 -90 135 4 0 19 -18 32 -40z m6145
-3338 c3 -5 -1 -9 -9 -9 -8 0 -12 4 -9 9 3 4 7 8 9 8 2 0 6 -4 9 -8z m83 -577
c0 -8 -4 -12 -9 -9 -5 3 -6 10 -3 15 9 13 12 11 12 -6z"/>
<path d="M5226 10525 c4 -8 11 -15 16 -15 6 0 5 6 -2 15 -7 8 -14 15 -16 15
-2 0 -1 -7 2 -15z"/>
<path d="M10460 9546 c0 -2 8 -10 18 -17 15 -13 16 -12 3 4 -13 16 -21 21 -21
13z"/>
<path d="M1996 7427 c3 -10 9 -15 12 -12 3 3 0 11 -7 18 -10 9 -11 8 -5 -6z"/>
<path d="M13096 1172 c-3 -5 1 -9 9 -9 8 0 12 4 9 9 -3 4 -7 8 -9 8 -2 0 -6
-4 -9 -8z"/>
</g>
</svg>
